# xmcd
#
# Track frame offsets:
#	150
#	12822
#	27697
#	41920
#	61570
#	68242
#	82602
#	96865
#	119552
#	134830
#	149097
#	160852
#	175600
#	189150
#	198590
#	219210
#	232557
#	252787
#	260265
#	277155
#	283152
#	292855
#	310770
#
# Disc length: 4319 seconds
#
# Revision: 1
# Processed by: cddbd v1.4PL0 Copyright (c) Steve Scherf et al.
# Submitted via: audiograbber 1.80.04
#
DISCID=4910dd17
DTITLE=Stefan Grossman - The Best Of The Transatlantic Years
DYEAR=1900
DGENRE=
TTITLE0=a. Hot Dogs b. Cincinnati Flow Rag c. New York City Rag
TTITLE1=Roll And Tumble Blues
TTITLE2=Shake Sugaree
TTITLE3=Candyman
TTITLE4=Morning Comes
TTITLE5=Take A Whiff On Me
TTITLE6=Blues For Mr. Sam
TTITLE7=Vestapol/That's No Way To Get Along
TTITLE8=Those Lazy Blues
TTITLE9=Blues Jumped The Rabbit
TTITLE10=Teddy Roosevelt
TTITLE11=Those Pleasant Days
TTITLE12=Hi Dum Diddle
TTITLE13=Bo's Rag
TTITLE14=So They Say
TTITLE15=Sound Techniques Recording Blues
TTITLE16=The Alibi
TTITLE17=Waterfalls
TTITLE18=Fat Man
TTITLE19=Kokomo
TTITLE20=Belzona Blues
TTITLE21=Orphan Sunday
TTITLE22=Little Sally Walker
EXTD=
EXTT0=
EXTT1=
EXTT2=
EXTT3=
EXTT4=
EXTT5=
EXTT6=
EXTT7=
EXTT8=
EXTT9=
EXTT10=
EXTT11=
EXTT12=
EXTT13=
EXTT14=
EXTT15=
EXTT16=
EXTT17=
EXTT18=
EXTT19=
EXTT20=
EXTT21=
EXTT22=
PLAYORDER=
